<?xml version="1.0" encoding="utf-8"?>
<!-- Generator: Adobe Illustrator 18.0.0, SVG Export Plug-In . SVG Version: 6.00 Build 0)  -->
<!DOCTYPE svg PUBLIC "-//W3C//DTD SVG 1.1//EN" "http://www.w3.org/Graphics/SVG/1.1/DTD/svg11.dtd">
<svg version="1.1" id="Camada_1" xmlns="http://www.w3.org/2000/svg" xmlns:xlink="http://www.w3.org/1999/xlink" x="0px" y="0px"
	  width="180px" height="180px" viewBox="0 0 180 180" enable-background="new 0 0 180 180" xml:space="preserve">
<rect x="0.2" y="-0.1" fill="#ccc" width="180" height="180.3"/>
<g>
</g>
<g>
	<path fill="#FFFFFF" d="M13.7,143v-10.4h6.2v1.1h-4.6v3.4h4.1v1.1h-4.1v3.7h4.6v1.1H13.7z"/>
	<path fill="#FFFFFF" d="M21.9,132.5h1.5v9.3h4.7v1.1h-6.2V132.5z"/>
	<path fill="#FFFFFF" d="M29.9,143v-10.4H36v1.1h-4.6v3.4h4.1v1.1h-4.1v3.7H36v1.1H29.9z"/>
	<path fill="#FFFFFF" d="M42.1,133.6v9.3h-1.5v-9.3h-3.3v-1.1h8v1.1H42.1z"/>
	<path fill="#FFFFFF" d="M47.3,132.5h3.4c0.6,0,1.1,0.1,1.6,0.2c0.5,0.1,0.8,0.3,1.2,0.6c0.3,0.3,0.6,0.6,0.7,0.9
		c0.2,0.4,0.2,0.8,0.2,1.2c0,0.3,0,0.6-0.1,0.8c-0.1,0.3-0.2,0.5-0.4,0.7c-0.2,0.2-0.3,0.4-0.5,0.6c-0.2,0.2-0.4,0.4-0.6,0.5
		l2.2,4.8h-1.6l-2-4.5h-2.5v4.5h-1.5V132.5z M48.8,133.6v3.7h3.1c0.1-0.1,0.2-0.2,0.3-0.3c0.1-0.1,0.2-0.2,0.3-0.4
		c0.1-0.1,0.2-0.3,0.2-0.5c0.1-0.2,0.1-0.4,0.1-0.7c0-0.3-0.1-0.6-0.2-0.9c-0.1-0.2-0.3-0.4-0.5-0.6c-0.2-0.1-0.4-0.3-0.7-0.3
		c-0.3-0.1-0.6-0.1-1-0.1H48.8z"/>
	<path fill="#FFFFFF" d="M56.4,137.7c0-0.8,0.1-1.6,0.3-2.2s0.5-1.2,0.9-1.7s0.9-0.8,1.4-1.1s1.2-0.4,1.8-0.4c0.7,0,1.3,0.1,1.8,0.4
		c0.6,0.3,1,0.6,1.4,1.1c0.4,0.5,0.7,1,0.9,1.7c0.2,0.7,0.3,1.4,0.3,2.2c0,0.8-0.1,1.6-0.3,2.2c-0.2,0.7-0.5,1.2-0.9,1.7
		c-0.4,0.5-0.9,0.8-1.4,1.1c-0.6,0.2-1.2,0.4-1.8,0.4c-0.7,0-1.3-0.1-1.8-0.4s-1-0.6-1.4-1.1s-0.7-1-0.9-1.7
		C56.5,139.3,56.4,138.6,56.4,137.7z M57.9,137.7c0,0.7,0.1,1.3,0.2,1.9s0.4,1,0.6,1.3c0.3,0.4,0.6,0.6,1,0.8
		c0.4,0.2,0.8,0.3,1.2,0.3c0.5,0,0.9-0.1,1.2-0.3c0.4-0.2,0.7-0.4,1-0.8c0.3-0.4,0.5-0.8,0.6-1.3s0.2-1.2,0.2-1.9s-0.1-1.3-0.2-1.9
		c-0.1-0.5-0.4-1-0.6-1.3c-0.3-0.4-0.6-0.6-1-0.8c-0.4-0.2-0.8-0.3-1.2-0.3c-0.4,0-0.9,0.1-1.2,0.3c-0.4,0.2-0.7,0.4-1,0.8
		c-0.3,0.4-0.5,0.8-0.6,1.3C58,136.4,57.9,137,57.9,137.7z"/>
	<path fill="#FFFFFF" d="M72.9,137.8l3.2-5.3H78V143h-1.5v-5.3l0.1-3.5l-3.1,5.3h-1.2l-3.1-5.3l0.1,3.5v5.4h-1.5v-10.4h2L72.9,137.8
		z"/>
	<path fill="#FFFFFF" d="M86.6,140.3h-4.3l-0.9,2.7h-1.5l3.8-10.4h1.5l3.8,10.4h-1.5L86.6,140.3z M82.7,139.2h3.5l-1.8-5.1
		L82.7,139.2z"/>
	<path fill="#FFFFFF" d="M95.1,137.7h3.8v4.8c-0.5,0.2-1,0.4-1.6,0.5c-0.5,0.1-1.1,0.2-1.7,0.2c-0.8,0-1.5-0.1-2.1-0.4
		c-0.6-0.3-1.1-0.7-1.6-1.2c-0.4-0.5-0.8-1.1-1-1.7c-0.2-0.7-0.3-1.3-0.3-2.1c0-0.8,0.1-1.6,0.4-2.2c0.2-0.7,0.6-1.2,1.1-1.7
		s1-0.8,1.7-1.1s1.4-0.4,2.3-0.4c0.3,0,0.5,0,0.7,0c0.2,0,0.4,0.1,0.6,0.1c0.2,0,0.4,0.1,0.5,0.1c0.1,0.1,0.3,0.1,0.4,0.2l-0.3,1.1
		c-0.2-0.1-0.5-0.2-0.8-0.2c-0.3-0.1-0.7-0.1-1.1-0.1c-0.6,0-1.2,0.1-1.6,0.3s-0.9,0.5-1.2,0.8c-0.3,0.4-0.6,0.8-0.8,1.3
		c-0.2,0.5-0.3,1.1-0.3,1.8c0,0.5,0.1,1.1,0.2,1.6s0.4,1,0.7,1.4s0.7,0.7,1.1,0.9s0.9,0.4,1.5,0.4c0.3,0,0.6,0,0.9-0.1
		s0.6-0.1,0.9-0.2v-3h-2.3V137.7z"/>
	<path fill="#FFFFFF" d="M101.5,132.5h1.5v0l0,0l5.4,8.1v-8.1h1.5V143h-1.5l-5.4-8.1v8.1h-1.5V132.5z"/>
	<path fill="#FFFFFF" d="M112.7,143v-10.4h6.2v1.1h-4.6v3.4h4.1v1.1h-4.1v3.7h4.6v1.1H112.7z"/>
	<path fill="#FFFFFF" d="M124.9,133.6v9.3h-1.5v-9.3h-3.3v-1.1h8v1.1H124.9z"/>
	<path fill="#FFFFFF" d="M129.7,143v-1.1h1.4v-8.2h-1.4v-1.1h4.4v1.1h-1.4v8.2h1.4v1.1H129.7z"/>
	<path fill="#FFFFFF" d="M142.8,140.2c0,0.4-0.1,0.8-0.3,1.2c-0.2,0.4-0.4,0.7-0.7,0.9c-0.3,0.3-0.7,0.4-1.1,0.6s-0.9,0.2-1.5,0.2
		c-0.3,0-0.6,0-0.9,0s-0.6-0.1-0.9-0.1c-0.3-0.1-0.6-0.1-0.8-0.2c-0.3-0.1-0.5-0.2-0.6-0.2l0.4-1.1c0.2,0.1,0.4,0.2,0.7,0.2
		c0.2,0.1,0.4,0.1,0.7,0.2c0.2,0.1,0.5,0.1,0.7,0.1c0.3,0,0.5,0,0.8,0c0.3,0,0.6,0,0.9-0.1s0.5-0.2,0.6-0.3c0.2-0.2,0.3-0.3,0.4-0.5
		c0.1-0.2,0.1-0.5,0.1-0.7c0-0.3-0.1-0.5-0.2-0.7c-0.1-0.2-0.3-0.4-0.5-0.5s-0.5-0.3-0.8-0.4c-0.3-0.1-0.6-0.2-1-0.3
		c-0.4-0.1-0.8-0.3-1.2-0.5s-0.7-0.4-0.9-0.7s-0.5-0.5-0.6-0.8c-0.2-0.3-0.2-0.7-0.2-1c0-0.4,0.1-0.8,0.3-1.2
		c0.2-0.4,0.4-0.7,0.7-0.9c0.3-0.3,0.7-0.4,1.1-0.6c0.4-0.1,0.9-0.2,1.4-0.2c0.3,0,0.6,0,0.9,0.1s0.6,0.1,0.8,0.2
		c0.3,0.1,0.5,0.1,0.7,0.2c0.2,0.1,0.4,0.1,0.5,0.2l-0.3,1.2c-0.2-0.1-0.4-0.2-0.6-0.2c-0.2-0.1-0.4-0.1-0.6-0.2s-0.4-0.1-0.7-0.1
		c-0.2,0-0.5-0.1-0.8-0.1c-0.3,0-0.6,0-0.9,0.1c-0.3,0.1-0.5,0.2-0.6,0.4c-0.2,0.2-0.3,0.3-0.4,0.5c-0.1,0.2-0.1,0.4-0.1,0.7
		c0,0.4,0.2,0.8,0.5,1.1c0.3,0.3,0.9,0.6,1.7,0.8c0.5,0.2,1,0.4,1.4,0.6c0.4,0.2,0.7,0.4,1,0.7c0.3,0.2,0.5,0.5,0.6,0.8
		S142.8,139.8,142.8,140.2z"/>
	<path fill="#FFFFFF" d="M150.1,137.8l3.2-5.3h1.9V143h-1.5v-5.3l0.1-3.5l-3.1,5.3h-1.2l-3.1-5.3l0.1,3.5v5.4H145v-10.4h2
		L150.1,137.8z"/>
	<path fill="#FFFFFF" d="M157.5,137.7c0-0.8,0.1-1.6,0.3-2.2s0.5-1.2,0.9-1.7s0.9-0.8,1.4-1.1c0.6-0.3,1.2-0.4,1.8-0.4
		c0.7,0,1.3,0.1,1.8,0.4s1,0.6,1.4,1.1c0.4,0.5,0.7,1,0.9,1.7c0.2,0.7,0.3,1.4,0.3,2.2c0,0.8-0.1,1.6-0.3,2.2
		c-0.2,0.7-0.5,1.2-0.9,1.7c-0.4,0.5-0.9,0.8-1.4,1.1s-1.2,0.4-1.8,0.4c-0.7,0-1.3-0.1-1.8-0.4c-0.6-0.2-1-0.6-1.4-1.1
		s-0.7-1-0.9-1.7C157.6,139.3,157.5,138.6,157.5,137.7z M159,137.7c0,0.7,0.1,1.3,0.2,1.9c0.1,0.5,0.4,1,0.6,1.3
		c0.3,0.4,0.6,0.6,1,0.8c0.4,0.2,0.8,0.3,1.2,0.3c0.5,0,0.9-0.1,1.2-0.3c0.4-0.2,0.7-0.4,1-0.8c0.3-0.4,0.5-0.8,0.6-1.3
		s0.2-1.2,0.2-1.9s-0.1-1.3-0.2-1.9c-0.1-0.5-0.4-1-0.6-1.3s-0.6-0.6-1-0.8c-0.4-0.2-0.8-0.3-1.2-0.3c-0.4,0-0.9,0.1-1.2,0.3
		c-0.4,0.2-0.7,0.4-1,0.8c-0.3,0.4-0.5,0.8-0.6,1.3C159,136.4,159,137,159,137.7z"/>
</g>
<g>
	<polygon fill="#FFFFFF" points="117.5,47 100,47 107.5,27 77.5,27 62.5,67 75,67 62.5,102.1 	"/>
</g>
<g>
</g>
<g>
</g>
<g>
</g>
<g>
</g>
<g>
</g>
<g>
</g>
</svg>
