<?xml version="1.0" encoding="utf-8"?>
<!-- Generator: Adobe Illustrator 18.0.0, SVG Export Plug-In . SVG Version: 6.00 Build 0)  -->
<!DOCTYPE svg PUBLIC "-//W3C//DTD SVG 1.1//EN" "http://www.w3.org/Graphics/SVG/1.1/DTD/svg11.dtd">
<svg version="1.1" id="Capa_1" xmlns="http://www.w3.org/2000/svg" xmlns:xlink="http://www.w3.org/1999/xlink" x="0px" y="0px"
	 width="180px" height="180px" viewBox="0 0 180 180" enable-background="new 0 0 180 180" xml:space="preserve">
<rect x="0" fill="#C0392B" width="180" height="180"/>
<ellipse transform="matrix(0.9999 1.396963e-002 -1.396963e-002 0.9999 0.9414 -1.7635)" fill="#E74C3C" cx="126.7" cy="66.5" rx="29.6" ry="29.2"/>
<ellipse transform="matrix(0.9999 1.396969e-002 -1.396969e-002 0.9999 0.9343 -0.7353)" fill="#FFFFFF" cx="53.1" cy="66.5" rx="28.1" ry="29.2"/>
<g>
	<path fill="#FFFFFF" d="M152.3,50.6c-2.7-4.6-6.3-8.2-10.9-10.9c-4.6-2.7-9.6-4-15.1-4c-5.4,0-10.5,1.3-15.1,4
		c-4.6,2.7-8.2,6.3-10.9,10.9c-2.7,4.6-4,9.6-4,15.1c0,6.5,1.9,12.4,5.7,17.6c3.8,5.2,8.7,8.8,14.8,10.8c0.7,0.1,1.2,0,1.6-0.3
		c0.3-0.3,0.5-0.7,0.5-1.2c0-0.1,0-0.8,0-2.1c0-1.3,0-0.2,0-1.1l-0.9,0.2c-0.6,0.1-1.3,0.1-2.2,0.1c-0.9,0-1.8-0.1-2.7-0.3
		c-0.9-0.2-1.8-0.6-2.6-1.2c-0.8-0.6-1.4-1.4-1.7-2.4l-0.4-0.9c-0.3-0.6-0.7-1.3-1.2-2c-0.6-0.7-1.1-1.2-1.7-1.5l-0.3-2
		c-0.2-0.1-0.4-0.3-0.5-0.5c-0.2-0.2-0.3,3.1-0.4,2.9c-0.1-0.2,0-0.3,0.2-0.4c0.2-0.1,0.6-0.2,1.1-0.2l0.8,0.1
		c0.5,0.1,1.2,0.4,1.9,0.9c0.8,0.5,1.4,1.2,1.9,2c0.6,1.1,1.3,1.9,2.2,2.4c0.8,0.6,1.7,0.8,2.6,0.8s1.6-0.1,2.2-0.2
		c0.6-0.1,1.2-0.3,1.8-0.6c0.2-1.7,0.9-7.1,1.9-8c-1.5-0.2-2.8-0.4-4-0.7c-1.2-0.3-2.4-0.8-3.7-1.5c-1.3-0.7-2.3-1.6-3.1-2.6
		c-0.8-1-1.5-2.4-2.1-4.1c-0.5-1.7-0.8-3.6-0.8-5.9c0-3.2,1-5.8,3.1-8c-1-2.4-0.9-5,0.3-8c0.8-0.2,1.9-0.1,3.4,0.5
		c1.5,0.6,2.6,1.1,3.3,1.5c0.7,0.4,1.2,0.8,1.7,1.1c2.4-0.7,4.9-1,7.5-1c2.6,0,5.1,0.3,7.5,1l1.5-0.9c1-0.6,2.2-1.2,3.6-1.7
		c1.4-0.5,2.4-0.7,3.2-0.4c1.2,2.9,1.3,5.6,0.3,8c2.1,2.2,3.1,4.9,3.1,8c0,2.2-0.3,4.2-0.8,5.9c-0.5,1.7-1.2,3.1-2.1,4.1
		c-0.8,1-1.9,1.9-3.2,2.6c-1.3,0.7-2.5,1.2-3.7,1.5c-1.2,0.3-2.5,0.5-4,0.7c1.4,1.2,2,3,2,5.5v8.2c0,0.5,0.2,0.9,0.5,1.2
		c0.3,0.3,0.8,0.4,1.5,0.3c6-2,11-5.6,14.8-10.8c3.8-5.2,5.7-11.1,5.7-17.6C156.3,60.2,155,55.2,152.3,50.6z"/>
</g>
<g>
	<path fill="#E74C3C" d="M78.9,50.1c-2.7-4.6-6.3-8.3-10.9-11c-4.6-2.7-9.6-4.1-15.1-4.1c-5.4,0-10.5,1.4-15.1,4.1
		c-4.6,2.7-8.2,6.4-10.9,11c-2.7,4.6-4,9.7-4,15.2c0,6.6,1.9,12.5,5.7,17.8c3.8,5.3,8.7,8.9,14.8,10.9c0.7,0.1,1.2,0,1.6-0.3
		c0.3-0.3,0.5-0.7,0.5-1.2c0-0.1,0-0.8,0-2.1c0-1.3,0-0.2,0-1.2l-0.9,0.2c-0.6,0.1-1.3,0.2-2.2,0.1c-0.9,0-1.8-0.1-2.7-0.3
		c-0.9-0.2-1.8-0.6-2.6-1.2c-0.8-0.6-1.4-1.4-1.7-2.4L35,84.7c-0.3-0.6-0.7-1.3-1.2-2c-0.6-0.7-1.1-1.2-1.7-1.5l-0.3-2
		c-0.2-0.1-0.4-0.3-0.5-0.5c-0.2-0.2-0.3,3.1-0.4,2.9c-0.1-0.2,0-0.3,0.2-0.5c0.2-0.1,0.6-0.2,1.1-0.2l0.8,0.1
		c0.5,0.1,1.2,0.4,1.9,0.9c0.8,0.5,1.4,1.2,1.9,2c0.6,1.1,1.3,1.9,2.2,2.5c0.8,0.6,1.7,0.8,2.6,0.8c0.9,0,1.6-0.1,2.2-0.2
		c0.6-0.1,1.2-0.3,1.8-0.6c0.2-1.8,0.9-7.1,1.9-8.1c-1.5-0.2-2.8-0.4-4-0.7c-1.2-0.3-2.4-0.8-3.7-1.5c-1.3-0.7-2.3-1.6-3.1-2.6
		c-0.8-1-1.5-2.4-2.1-4.1c-0.5-1.7-0.8-3.7-0.8-5.9c0-3.2,1-5.9,3.1-8.1c-1-2.4-0.9-5.1,0.3-8c0.8-0.2,1.9-0.1,3.4,0.5
		c1.5,0.6,2.6,1.1,3.3,1.5c0.7,0.4,1.2,0.8,1.7,1.1c2.4-0.7,4.9-1,7.5-1c2.6,0,5.1,0.3,7.5,1l1.5-0.9c1-0.6,2.2-1.2,3.6-1.7
		c1.4-0.5,2.4-0.7,3.2-0.4c1.2,3,1.3,5.6,0.3,8c2.1,2.2,3.1,4.9,3.1,8.1c0,2.2-0.3,4.2-0.8,5.9c-0.5,1.7-1.2,3.1-2.1,4.1
		c-0.8,1-1.9,1.9-3.2,2.6c-1.3,0.7-2.5,1.2-3.7,1.5c-1.2,0.3-2.5,0.6-4,0.7c1.4,1.2,2,3,2,5.6v8.3c0,0.5,0.2,0.9,0.5,1.2
		c0.3,0.3,0.8,0.4,1.5,0.3c6-2,11-5.7,14.8-10.9c3.8-5.3,5.7-11.2,5.7-17.8C82.9,59.8,81.6,54.7,78.9,50.1z"/>
</g>
<g>
	<path fill="#FFFFFF" d="M15.7,134.8v5.9h-1.9v-13h7.2v1.4h-5.4v4.2h4.7v1.4H15.7z"/>
	<path fill="#FFFFFF" d="M23,140.8v-1.4h1.8v-10.2H23v-1.4h5.4v1.4h-1.8v10.2h1.8v1.4H23z M26.9,123.8l2,0.6l-2.7,2.4l-1.3-0.4
		L26.9,123.8z"/>
	<path fill="#FFFFFF" d="M39.2,137.4c0,0.5-0.1,1-0.3,1.5c-0.2,0.4-0.5,0.8-0.9,1.1s-0.8,0.6-1.4,0.7c-0.5,0.2-1.1,0.3-1.8,0.3
		c-0.4,0-0.8,0-1.1-0.1c-0.4,0-0.8-0.1-1.1-0.1s-0.7-0.1-1-0.2c-0.3-0.1-0.6-0.2-0.8-0.3l0.5-1.4c0.3,0.1,0.5,0.2,0.8,0.3
		s0.6,0.2,0.8,0.2s0.6,0.1,0.9,0.2c0.3,0,0.7,0.1,1,0.1c0.4,0,0.7,0,1.1-0.1s0.6-0.2,0.8-0.4c0.2-0.2,0.4-0.4,0.5-0.7
		c0.1-0.3,0.2-0.6,0.2-0.9c0-0.3-0.1-0.6-0.2-0.8s-0.3-0.5-0.6-0.7c-0.3-0.2-0.6-0.4-0.9-0.5s-0.8-0.3-1.2-0.4
		c-0.5-0.2-1-0.3-1.4-0.6c-0.4-0.2-0.8-0.5-1.2-0.8c-0.3-0.3-0.6-0.7-0.8-1.1c-0.2-0.4-0.3-0.8-0.3-1.3c0-0.5,0.1-1,0.3-1.5
		c0.2-0.4,0.5-0.8,0.9-1.1s0.8-0.6,1.4-0.7c0.5-0.2,1.1-0.3,1.8-0.3c0.4,0,0.8,0,1.2,0.1c0.4,0.1,0.7,0.1,1,0.2s0.6,0.2,0.9,0.2
		c0.3,0.1,0.5,0.2,0.7,0.2l-0.4,1.4c-0.3-0.1-0.5-0.2-0.8-0.3c-0.2-0.1-0.5-0.2-0.7-0.3c-0.3-0.1-0.5-0.1-0.8-0.2s-0.6-0.1-1-0.1
		c-0.4,0-0.8,0.1-1.1,0.2c-0.3,0.1-0.6,0.3-0.8,0.4s-0.4,0.4-0.5,0.7c-0.1,0.3-0.2,0.5-0.2,0.9c0,0.5,0.2,1,0.6,1.4
		c0.4,0.4,1.1,0.7,2,1c0.7,0.2,1.2,0.4,1.7,0.7c0.5,0.2,0.9,0.5,1.2,0.8c0.3,0.3,0.6,0.7,0.7,1S39.2,136.9,39.2,137.4z"/>
	<path fill="#FFFFFF" d="M41.5,140.8v-1.4h1.8v-10.2h-1.8v-1.4h5.4v1.4h-1.8v10.2h1.8v1.4H41.5z"/>
	<path fill="#FFFFFF" d="M49.3,134.3c0-1,0.1-1.9,0.4-2.7c0.3-0.8,0.7-1.5,1.2-2.1c0.5-0.6,1.1-1,1.9-1.3c0.7-0.3,1.6-0.5,2.5-0.5
		c0.3,0,0.6,0,0.9,0.1c0.3,0,0.5,0.1,0.7,0.1c0.2,0.1,0.4,0.1,0.6,0.2s0.4,0.2,0.5,0.2l-0.5,1.2c-0.3-0.1-0.6-0.3-1-0.3
		c-0.4-0.1-0.8-0.1-1.2-0.1c-0.6,0-1.2,0.1-1.7,0.3s-0.9,0.5-1.3,0.9c-0.4,0.4-0.6,1-0.8,1.6c-0.2,0.7-0.3,1.5-0.3,2.4
		c0,0.9,0.1,1.7,0.3,2.4c0.2,0.7,0.5,1.2,0.9,1.6c0.4,0.4,0.8,0.8,1.4,1c0.5,0.2,1.1,0.3,1.8,0.3c0.3,0,0.5,0,0.8-0.1
		c0.2,0,0.4-0.1,0.6-0.1c0.2-0.1,0.4-0.1,0.5-0.2s0.3-0.1,0.5-0.2l0.4,1.2c-0.3,0.2-0.7,0.4-1.2,0.5c-0.5,0.1-1.1,0.2-1.8,0.2
		c-0.9,0-1.7-0.2-2.5-0.5c-0.7-0.3-1.4-0.8-1.9-1.4c-0.5-0.6-0.9-1.3-1.2-2.1C49.5,136.2,49.3,135.3,49.3,134.3z"/>
	<path fill="#FFFFFF" d="M67.9,137.5h-5.4l-1.1,3.3h-1.9l4.7-13h1.9l4.8,13h-1.9L67.9,137.5z M63.1,136.1h4.4l-2.2-6.3L63.1,136.1z"
		/>
	<path fill="#FFFFFF" d="M84.4,134.4l3.9-6.6h2.4v13h-1.9v-6.6l0.1-4.4l-3.9,6.6h-1.5l-3.9-6.6l0.2,4.4v6.7h-1.9v-13h2.4L84.4,134.4
		z"/>
	<path fill="#FFFFFF" d="M93.5,134.3c0-1,0.1-1.9,0.4-2.8c0.3-0.8,0.7-1.5,1.2-2.1c0.5-0.6,1.1-1,1.8-1.3c0.7-0.3,1.5-0.5,2.3-0.5
		c0.8,0,1.6,0.2,2.3,0.5c0.7,0.3,1.3,0.8,1.8,1.3c0.5,0.6,0.9,1.3,1.2,2.1c0.3,0.8,0.4,1.7,0.4,2.8c0,1-0.1,2-0.4,2.8
		c-0.3,0.8-0.7,1.5-1.2,2.1c-0.5,0.6-1.1,1-1.8,1.3s-1.5,0.5-2.3,0.5c-0.8,0-1.6-0.2-2.3-0.5c-0.7-0.3-1.3-0.8-1.8-1.3
		c-0.5-0.6-0.9-1.3-1.2-2.1C93.7,136.3,93.5,135.3,93.5,134.3z M95.4,134.3c0,0.9,0.1,1.7,0.3,2.3c0.2,0.7,0.4,1.2,0.8,1.6
		c0.3,0.4,0.7,0.8,1.2,1s1,0.3,1.5,0.3c0.6,0,1.1-0.1,1.5-0.3s0.9-0.5,1.2-1c0.3-0.4,0.6-1,0.8-1.6c0.2-0.7,0.3-1.4,0.3-2.3
		s-0.1-1.7-0.3-2.3c-0.2-0.7-0.4-1.2-0.8-1.6c-0.3-0.4-0.7-0.8-1.2-1s-1-0.3-1.5-0.3c-0.6,0-1.1,0.1-1.5,0.3s-0.9,0.5-1.2,1
		c-0.3,0.4-0.6,1-0.8,1.6C95.5,132.7,95.4,133.4,95.4,134.3z"/>
	<path fill="#FFFFFF" d="M107.6,127.8h4c0.9,0,1.8,0.2,2.6,0.5s1.4,0.7,2,1.3s1,1.2,1.2,2s0.4,1.7,0.4,2.7c0,1-0.1,1.9-0.4,2.7
		s-0.7,1.5-1.2,2c-0.5,0.6-1.2,1-2,1.3c-0.8,0.3-1.6,0.5-2.6,0.5h-4V127.8z M109.5,129.2v10.2h1.9c0.7,0,1.3-0.1,1.8-0.3
		s1-0.5,1.4-0.9c0.4-0.4,0.7-0.9,0.9-1.6c0.2-0.6,0.3-1.4,0.3-2.3c0-0.9-0.1-1.6-0.3-2.3c-0.2-0.6-0.5-1.2-0.9-1.6
		c-0.4-0.4-0.9-0.7-1.4-0.9c-0.6-0.2-1.2-0.3-1.8-0.3H109.5z"/>
	<path fill="#FFFFFF" d="M120.8,140.8v-13h7.6v1.4h-5.8v4.2h5.1v1.4h-5.1v4.6h5.8v1.4H120.8z"/>
	<path fill="#FFFFFF" d="M131.1,127.8h4.2c0.7,0,1.4,0.1,1.9,0.3c0.6,0.2,1,0.4,1.4,0.7c0.4,0.3,0.7,0.7,0.9,1.2
		c0.2,0.5,0.3,1,0.3,1.5c0,0.4-0.1,0.7-0.2,1c-0.1,0.3-0.3,0.6-0.5,0.9c-0.2,0.3-0.4,0.5-0.7,0.8s-0.5,0.4-0.8,0.6l2.7,5.9h-2
		l-2.5-5.6h-3.1v5.6h-1.9V127.8z M132.9,129.2v4.6h3.9c0.1-0.1,0.3-0.2,0.4-0.4c0.1-0.1,0.3-0.3,0.4-0.5c0.1-0.2,0.2-0.4,0.3-0.6
		c0.1-0.2,0.1-0.5,0.1-0.8c0-0.4-0.1-0.8-0.2-1.1c-0.1-0.3-0.3-0.5-0.6-0.7c-0.2-0.2-0.6-0.3-0.9-0.4c-0.4-0.1-0.8-0.1-1.2-0.1
		H132.9z"/>
	<path fill="#FFFFFF" d="M143,127.8h1.9v0l0,0l6.7,10.1v-10.1h1.9v13h-1.9l-6.7-10.1v10.1H143V127.8z"/>
	<path fill="#FFFFFF" d="M164.2,137.5h-5.4l-1.1,3.3h-1.9l4.7-13h1.9l4.8,13h-1.9L164.2,137.5z M159.3,136.1h4.4l-2.2-6.3
		L159.3,136.1z"/>
</g>
</svg>
