<?xml version="1.0" encoding="utf-8"?>
<!-- Generator: Adobe Illustrator 18.0.0, SVG Export Plug-In . SVG Version: 6.00 Build 0)  -->
<!DOCTYPE svg PUBLIC "-//W3C//DTD SVG 1.1//EN" "http://www.w3.org/Graphics/SVG/1.1/DTD/svg11.dtd">
<svg version="1.1" id="Camada_1" xmlns="http://www.w3.org/2000/svg" xmlns:xlink="http://www.w3.org/1999/xlink" x="0px" y="0px"
	  width="180px" height="180px" viewBox="0 0 180 180" enable-background="new 0 0 180 180" xml:space="preserve">
<rect fill="#3498db" width="180.3" height="180.3"/>
<g>
	<path fill="#FFFFFF" d="M45.5,137.3c0-1.5,0.2-2.8,0.6-4s1-2.2,1.7-3c0.7-0.8,1.6-1.5,2.6-1.9c1-0.4,2.1-0.7,3.3-0.7
		c1.2,0,2.3,0.2,3.3,0.7c1,0.5,1.9,1.1,2.6,1.9s1.3,1.8,1.7,3c0.4,1.2,0.6,2.5,0.6,4c0,1.5-0.2,2.8-0.6,4c-0.4,1.2-1,2.2-1.7,3
		s-1.6,1.5-2.6,1.9c-1,0.4-2.1,0.7-3.3,0.7c-1.2,0-2.3-0.2-3.3-0.7c-1-0.4-1.9-1.1-2.6-1.9c-0.7-0.8-1.3-1.8-1.7-3
		C45.7,140.1,45.5,138.7,45.5,137.3z M48.2,137.3c0,1.3,0.1,2.4,0.4,3.3s0.6,1.7,1.1,2.4s1.1,1.1,1.7,1.4c0.7,0.3,1.4,0.5,2.2,0.5
		c0.8,0,1.5-0.2,2.2-0.5s1.3-0.8,1.7-1.4s0.9-1.4,1.1-2.4c0.3-1,0.4-2.1,0.4-3.3s-0.1-2.4-0.4-3.3c-0.3-1-0.6-1.7-1.1-2.4
		c-0.5-0.6-1.1-1.1-1.7-1.4s-1.4-0.5-2.2-0.5c-0.8,0-1.5,0.2-2.2,0.5c-0.7,0.3-1.2,0.8-1.7,1.4c-0.5,0.6-0.9,1.4-1.1,2.4
		S48.2,136,48.2,137.3z"/>
	<path fill="#FFFFFF" d="M65.9,127.9h2.7v0l0,0l9.6,14.5v-14.5h2.7v18.7h-2.7l-9.7-14.6v14.6h-2.7V127.9z"/>
	<path fill="#FFFFFF" d="M85.9,127.9h5.8c1.4,0,2.6,0.2,3.7,0.7c1.1,0.4,2,1.1,2.8,1.9c0.8,0.8,1.4,1.8,1.8,2.9s0.6,2.4,0.6,3.8
		c0,1.4-0.2,2.7-0.6,3.8s-1,2.1-1.8,3c-0.8,0.8-1.7,1.5-2.8,1.9c-1.1,0.4-2.3,0.7-3.7,0.7h-5.8V127.9z M88.6,129.9v14.7h2.8
		c1,0,1.9-0.1,2.7-0.4c0.8-0.3,1.5-0.7,2.1-1.3c0.6-0.6,1-1.4,1.3-2.3c0.3-0.9,0.5-2,0.5-3.3c0-1.3-0.2-2.4-0.5-3.3
		c-0.3-0.9-0.8-1.7-1.3-2.3s-1.3-1-2.1-1.3c-0.8-0.3-1.7-0.4-2.7-0.4H88.6z"/>
	<path fill="#FFFFFF" d="M115.6,141.9h-7.7l-1.7,4.8h-2.7l6.8-18.7h2.8l6.9,18.7h-2.7L115.6,141.9z M108.5,139.8h6.3l-3.2-9.1
		L108.5,139.8z"/>
	<path fill="#FFFFFF" d="M134.6,141.7c0,0.8-0.1,1.5-0.4,2.1s-0.7,1.2-1.3,1.6c-0.6,0.5-1.2,0.8-2,1.1c-0.8,0.2-1.7,0.4-2.6,0.4
		c-0.5,0-1.1,0-1.6-0.1c-0.6,0-1.1-0.1-1.6-0.2c-0.5-0.1-1-0.2-1.5-0.3s-0.8-0.3-1.2-0.4l0.7-2c0.4,0.1,0.8,0.3,1.2,0.4
		c0.4,0.1,0.8,0.2,1.2,0.3c0.4,0.1,0.9,0.2,1.3,0.2c0.5,0.1,0.9,0.1,1.5,0.1c0.6,0,1.1-0.1,1.5-0.2c0.5-0.1,0.8-0.3,1.1-0.6
		s0.6-0.6,0.7-1c0.2-0.4,0.3-0.8,0.3-1.3c0-0.4-0.1-0.8-0.3-1.2c-0.2-0.3-0.5-0.7-0.9-0.9c-0.4-0.3-0.8-0.5-1.4-0.8
		c-0.5-0.2-1.1-0.4-1.8-0.6c-0.7-0.2-1.4-0.5-2.1-0.8c-0.6-0.3-1.2-0.7-1.7-1.2c-0.5-0.4-0.8-1-1.1-1.5c-0.3-0.6-0.4-1.2-0.4-1.9
		c0-0.8,0.1-1.5,0.4-2.2s0.7-1.2,1.3-1.7s1.2-0.8,2-1.1c0.8-0.2,1.6-0.4,2.6-0.4c0.6,0,1.1,0,1.7,0.1c0.5,0.1,1,0.2,1.5,0.3
		c0.5,0.1,0.9,0.2,1.3,0.4c0.4,0.1,0.7,0.2,1,0.4l-0.6,2.1c-0.4-0.1-0.7-0.3-1.1-0.4s-0.7-0.3-1.1-0.4c-0.4-0.1-0.8-0.2-1.2-0.3
		c-0.4-0.1-0.9-0.1-1.4-0.1c-0.6,0-1.1,0.1-1.6,0.2s-0.8,0.4-1.1,0.6c-0.3,0.3-0.5,0.6-0.7,1s-0.2,0.8-0.2,1.2c0,0.8,0.3,1.4,0.9,2
		c0.6,0.6,1.6,1.1,3,1.5c0.9,0.3,1.8,0.6,2.5,1c0.7,0.4,1.3,0.8,1.8,1.2c0.5,0.4,0.8,0.9,1.1,1.5C134.5,140.4,134.6,141,134.6,141.7
		z"/>
</g>
<g>
	<path fill="#FFFFFF" d="M141,99.3c-83.6,4.7-60.2-59.2-38.5-53.6c-2.2,1.3-3.7,6.1-2.3,9.2c1.5,3.4,6.4,5.3,9.2,4.6
		c6.7-1.7,7-11.2,4.6-16.1c-2.5-5.1-9.1-11.5-20.7-11.5c-28,0-47.1,14.3-54.3,38.8v36.1h102V99.3z"/>
</g>
<g>
</g>
<g>
</g>
<g>
</g>
<g>
</g>
<g>
</g>
<g>
</g>
</svg>
