<?xml version="1.0" encoding="utf-8"?>
<!-- Generator: Adobe Illustrator 18.0.0, SVG Export Plug-In . SVG Version: 6.00 Build 0)  -->
<!DOCTYPE svg PUBLIC "-//W3C//DTD SVG 1.1//EN" "http://www.w3.org/Graphics/SVG/1.1/DTD/svg11.dtd">
<svg version="1.1" id="Camada_1" xmlns="http://www.w3.org/2000/svg" xmlns:xlink="http://www.w3.org/1999/xlink" x="0px" y="0px"
	  width="180px" height="180px" viewBox="0 0 180 180" enable-background="new 0 0 180 180" xml:space="preserve">
<path fill="#f1c40f" d="M180,51.6c-0.1-2.7-0.2-5.5,0-8.2V0H0v68.5c0.2,0.6,0.3,1.2,0.3,1.9c0,4.3-0.2,8.6-0.2,12.8
	c0,0.5-0.1,0.9-0.2,1.3v95.6h180v-101c-0.4-1.1-0.4-2.3-0.1-3.4c-0.1-0.7,0-1.4,0.1-2V51.6z"/>
<g>
	<path fill="#FFFFFF" d="M37.8,129.7c0-1.6,0.2-3.1,0.7-4.4c0.4-1.3,1.1-2.4,1.8-3.3c0.8-0.9,1.7-1.6,2.8-2.1
		c1.1-0.5,2.3-0.7,3.6-0.7c1.3,0,2.5,0.2,3.6,0.7c1.1,0.5,2.1,1.2,2.9,2.1c0.8,0.9,1.4,2,1.9,3.3s0.7,2.8,0.7,4.4
		c0,1.6-0.2,3.1-0.7,4.4s-1.1,2.4-1.9,3.3c-0.8,0.9-1.7,1.6-2.9,2.1c-1.1,0.5-2.3,0.7-3.6,0.7c-1.3,0-2.5-0.2-3.6-0.7
		c-1.1-0.5-2-1.2-2.8-2.1c-0.8-0.9-1.4-2-1.8-3.3C38,132.8,37.8,131.4,37.8,129.7z M40.8,129.7c0,1.4,0.1,2.6,0.4,3.7
		c0.3,1.1,0.7,1.9,1.2,2.6c0.5,0.7,1.2,1.2,1.9,1.6c0.7,0.3,1.5,0.5,2.4,0.5c0.9,0,1.7-0.2,2.4-0.5s1.4-0.9,1.9-1.6
		c0.5-0.7,0.9-1.6,1.2-2.6c0.3-1.1,0.4-2.3,0.4-3.7c0-1.4-0.1-2.6-0.4-3.7c-0.3-1.1-0.7-1.9-1.2-2.6s-1.2-1.2-1.9-1.6
		c-0.7-0.3-1.6-0.5-2.4-0.5c-0.9,0-1.7,0.2-2.4,0.5c-0.7,0.3-1.4,0.9-1.9,1.6s-0.9,1.6-1.2,2.6C40.9,127.1,40.8,128.3,40.8,129.7z
		 M48.7,112.8l3.2,0.9l-4.3,3.8l-2.1-0.6L48.7,112.8z"/>
	<path fill="#FFFFFF" d="M60.3,119.4h6.7c1.2,0,2.3,0.1,3.2,0.4c0.9,0.3,1.7,0.7,2.4,1.3c0.7,0.6,1.1,1.2,1.5,2
		c0.3,0.8,0.5,1.7,0.5,2.6s-0.2,1.8-0.5,2.6c-0.3,0.8-0.8,1.5-1.5,2c-0.7,0.6-1.4,1-2.4,1.3c-0.9,0.3-2,0.5-3.2,0.5h-3.7v7.9h-3
		V119.4z M63.2,121.6v8.3h3.4c0.8,0,1.5-0.1,2.1-0.3c0.6-0.2,1.1-0.4,1.6-0.8s0.8-0.8,1-1.3c0.2-0.5,0.3-1.1,0.3-1.9
		s-0.1-1.3-0.3-1.9c-0.2-0.5-0.6-0.9-1-1.3s-0.9-0.6-1.6-0.7c-0.6-0.2-1.3-0.2-2.1-0.2H63.2z"/>
	<path fill="#FFFFFF" d="M86.3,121.6V140h-3v-18.4h-6.4v-2.2h15.9v2.2H86.3z"/>
	<path fill="#FFFFFF" d="M95.9,140v-2.2h2.8v-16.2h-2.8v-2.2h8.6v2.2h-2.8v16.2h2.8v2.2H95.9z"/>
	<path fill="#FFFFFF" d="M108.4,129.7c0-1.6,0.2-3,0.7-4.4c0.4-1.3,1.1-2.4,1.9-3.3c0.8-0.9,1.8-1.6,3-2.1c1.2-0.5,2.5-0.8,4-0.8
		c0.5,0,1,0,1.4,0.1c0.4,0.1,0.8,0.1,1.2,0.2c0.3,0.1,0.7,0.2,1,0.3c0.3,0.1,0.6,0.2,0.8,0.4l-0.8,2c-0.5-0.2-1-0.4-1.6-0.6
		c-0.6-0.1-1.2-0.2-1.9-0.2c-1,0-1.9,0.2-2.7,0.5c-0.8,0.3-1.5,0.8-2.1,1.5s-1,1.5-1.3,2.6s-0.5,2.3-0.5,3.8c0,1.5,0.2,2.7,0.5,3.8
		c0.3,1.1,0.8,1.9,1.4,2.6c0.6,0.7,1.3,1.2,2.2,1.5c0.8,0.3,1.8,0.5,2.8,0.5c0.4,0,0.8,0,1.2-0.1s0.7-0.1,1-0.2
		c0.3-0.1,0.6-0.2,0.9-0.3c0.3-0.1,0.5-0.2,0.7-0.3l0.6,1.9c-0.5,0.3-1.2,0.6-1.9,0.8s-1.7,0.3-2.8,0.3c-1.5,0-2.8-0.3-4-0.8
		c-1.2-0.5-2.2-1.2-3-2.2c-0.8-0.9-1.4-2-1.9-3.4C108.6,132.7,108.4,131.3,108.4,129.7z"/>
	<path fill="#FFFFFF" d="M138,134.8h-8.5l-1.8,5.2h-3l7.5-20.6h3l7.6,20.6h-3L138,134.8z M130.3,132.6h7l-3.5-10L130.3,132.6z"/>
</g>
<g>
	<g id="_x37__12_">
		<g>
			<path fill="#FFFFFF" d="M46.3,100.1h86.6L87.5,23.3L46.3,100.1z"/>
		</g>
	</g>
</g>
<path fill="#FFFFFF" d="M0.2,72.6c0,0.8-0.1,1.6-0.1,2.4l66.1-7.6l2.3-2L0.2,72.6z"/>
<path fill="#FFFFFF" d="M180.1,42.5c0-0.3-0.1-0.5-0.1-0.8V39c0-0.4,0.1-0.9,0.2-1.3c0-0.1,0-0.3,0-0.4l-78.5,20.3l6.9,16.7
	l71.5,2.5c0.1-3.6,0.2-7.2,0.2-10.8v-0.9c-0.1-0.6-0.1-1.2,0-1.8v-1c-0.1-0.6-0.1-1.1,0-1.7v-4.8C179.9,51.3,179.8,47,180.1,42.5z"
	/>
<g>
</g>
<g>
</g>
<g>
</g>
<g>
</g>
<g>
</g>
<g>
</g>
</svg>
