<?xml version="1.0" encoding="utf-8"?>
<!-- Generator: Adobe Illustrator 18.0.0, SVG Export Plug-In . SVG Version: 6.00 Build 0)  -->
<!DOCTYPE svg PUBLIC "-//W3C//DTD SVG 1.1//EN" "http://www.w3.org/Graphics/SVG/1.1/DTD/svg11.dtd">
<svg version="1.1" id="Camada_1" xmlns="http://www.w3.org/2000/svg" xmlns:xlink="http://www.w3.org/1999/xlink" x="0px" y="0px"
	  width="180px" height="180px" viewBox="0 0 180 180" enable-background="new 0 0 180 180" xml:space="preserve">
<rect x="1" y="1" fill="#d35400" width="180" height="179"/>
<g>
	<path fill="#FFFFFF" d="M17.5,130v11.3h-1.8V130h-4v-1.4h9.8v1.4H17.5z"/>
	<path fill="#FFFFFF" d="M23.8,141.3v-12.7h7.5v1.4h-5.7v4.2h5v1.4h-5v4.5h5.7v1.4H23.8z"/>
	<path fill="#FFFFFF" d="M33.9,128.6H38c0.7,0,1.4,0.1,1.9,0.2c0.6,0.2,1,0.4,1.4,0.7c0.4,0.3,0.7,0.7,0.9,1.1
		c0.2,0.4,0.3,1,0.3,1.5c0,0.3-0.1,0.7-0.2,1c-0.1,0.3-0.3,0.6-0.4,0.9s-0.4,0.5-0.7,0.8c-0.2,0.2-0.5,0.4-0.8,0.6l2.7,5.8h-1.9
		l-2.5-5.5h-3v5.5h-1.8V128.6z M35.7,130v4.5h3.8c0.1-0.1,0.3-0.2,0.4-0.4c0.1-0.1,0.3-0.3,0.4-0.5c0.1-0.2,0.2-0.4,0.3-0.6
		c0.1-0.2,0.1-0.5,0.1-0.8c0-0.4-0.1-0.8-0.2-1c-0.1-0.3-0.3-0.5-0.6-0.7c-0.2-0.2-0.5-0.3-0.9-0.4c-0.4-0.1-0.8-0.1-1.2-0.1H35.7z"
		/>
	<path fill="#FFFFFF" d="M51.9,135.1l3.9-6.5h2.4v12.7h-1.8v-6.4l0.1-4.3l-3.8,6.4h-1.5l-3.8-6.5l0.2,4.3v6.5h-1.8v-12.7H48
		L51.9,135.1z"/>
	<path fill="#FFFFFF" d="M60.8,135c0-1,0.1-1.9,0.4-2.7c0.3-0.8,0.6-1.5,1.1-2.1c0.5-0.6,1.1-1,1.7-1.3s1.4-0.5,2.2-0.5
		c0.8,0,1.6,0.2,2.2,0.5c0.7,0.3,1.3,0.7,1.8,1.3c0.5,0.6,0.9,1.3,1.1,2.1c0.3,0.8,0.4,1.7,0.4,2.7c0,1-0.1,1.9-0.4,2.7
		c-0.3,0.8-0.7,1.5-1.1,2.1c-0.5,0.6-1.1,1-1.8,1.3c-0.7,0.3-1.4,0.5-2.2,0.5c-0.8,0-1.6-0.2-2.2-0.5c-0.7-0.3-1.3-0.7-1.7-1.3
		c-0.5-0.6-0.9-1.3-1.1-2.1C60.9,136.9,60.8,136,60.8,135z M62.6,135c0,0.9,0.1,1.6,0.3,2.3c0.2,0.6,0.4,1.2,0.8,1.6s0.7,0.8,1.2,1
		c0.5,0.2,1,0.3,1.5,0.3c0.5,0,1.1-0.1,1.5-0.3c0.5-0.2,0.9-0.5,1.2-1s0.6-1,0.8-1.6c0.2-0.6,0.3-1.4,0.3-2.3s-0.1-1.6-0.3-2.3
		c-0.2-0.6-0.4-1.2-0.8-1.6c-0.3-0.4-0.7-0.8-1.2-1c-0.5-0.2-1-0.3-1.5-0.3c-0.5,0-1,0.1-1.5,0.3c-0.5,0.2-0.8,0.5-1.2,1
		c-0.3,0.4-0.6,1-0.8,1.6C62.7,133.4,62.6,134.1,62.6,135z"/>
	<path fill="#FFFFFF" d="M74.6,128.6h3.9c0.9,0,1.8,0.2,2.5,0.5c0.8,0.3,1.4,0.7,1.9,1.3c0.5,0.6,0.9,1.2,1.2,2
		c0.3,0.8,0.4,1.6,0.4,2.6s-0.1,1.8-0.4,2.6c-0.3,0.8-0.7,1.5-1.2,2c-0.5,0.6-1.2,1-1.9,1.3c-0.8,0.3-1.6,0.5-2.5,0.5h-3.9V128.6z
		 M76.4,130v10h1.9c0.7,0,1.3-0.1,1.8-0.3s1-0.5,1.4-0.9s0.7-0.9,0.9-1.6c0.2-0.6,0.3-1.4,0.3-2.3c0-0.9-0.1-1.6-0.3-2.2
		c-0.2-0.6-0.5-1.1-0.9-1.5c-0.4-0.4-0.9-0.7-1.4-0.9S79,130,78.3,130H76.4z"/>
	<path fill="#FFFFFF" d="M87.1,141.3V140h1.7v-10h-1.7v-1.4h5.3v1.4h-1.7v10h1.7v1.4H87.1z"/>
	<path fill="#FFFFFF" d="M95.4,128.6h1.8v0l0,0l6.6,9.9v-9.9h1.8v12.7h-1.8l-6.6-9.9v9.9h-1.8V128.6z"/>
	<path fill="#FFFFFF" d="M116.2,138.1h-5.3l-1.1,3.2H108l4.6-12.7h1.9l4.7,12.7h-1.8L116.2,138.1z M112.4,127.6h-1.9l2.8-2.2h1.1
		l2.8,2.2h-1.9l-1.4-1.1L112.4,127.6z M111.4,136.7h4.3l-2.2-6.2L111.4,136.7z"/>
	<path fill="#FFFFFF" d="M127.8,135.1l3.9-6.5h2.4v12.7h-1.8v-6.4l0.1-4.3l-3.8,6.4H127l-3.8-6.5l0.2,4.3v6.5h-1.8v-12.7h2.4
		L127.8,135.1z"/>
	<path fill="#FFFFFF" d="M136.9,141.3V140h1.7v-10h-1.7v-1.4h5.3v1.4h-1.7v10h1.7v1.4H136.9z"/>
	<path fill="#FFFFFF" d="M144.6,135c0-1,0.1-1.9,0.4-2.7c0.3-0.8,0.7-1.5,1.2-2.1c0.5-0.6,1.1-1,1.8-1.3s1.5-0.5,2.4-0.5
		c0.3,0,0.6,0,0.9,0.1s0.5,0.1,0.7,0.1c0.2,0.1,0.4,0.1,0.6,0.2c0.2,0.1,0.4,0.2,0.5,0.2l-0.5,1.2c-0.3-0.1-0.6-0.3-1-0.3
		c-0.4-0.1-0.7-0.1-1.2-0.1c-0.6,0-1.1,0.1-1.6,0.3s-0.9,0.5-1.3,0.9c-0.4,0.4-0.6,1-0.8,1.6c-0.2,0.6-0.3,1.4-0.3,2.3
		s0.1,1.7,0.3,2.3c0.2,0.7,0.5,1.2,0.9,1.6c0.4,0.4,0.8,0.7,1.3,0.9c0.5,0.2,1.1,0.3,1.7,0.3c0.3,0,0.5,0,0.7-0.1s0.4-0.1,0.6-0.1
		c0.2-0.1,0.4-0.1,0.5-0.2s0.3-0.1,0.4-0.2l0.4,1.2c-0.3,0.2-0.7,0.4-1.2,0.5s-1.1,0.2-1.8,0.2c-0.9,0-1.7-0.2-2.4-0.5
		s-1.3-0.8-1.8-1.3s-0.9-1.3-1.2-2.1C144.7,136.8,144.6,135.9,144.6,135z"/>
	<path fill="#FFFFFF" d="M162.8,138.1h-5.3l-1.1,3.2h-1.8l4.6-12.7h1.9l4.7,12.7H164L162.8,138.1z M158.1,136.7h4.3l-2.2-6.2
		L158.1,136.7z"/>
</g>
<g>
	<path fill="#FFFFFF" d="M75.6,101.1c-5.1-10.5-2.4-16.6,1.5-22.2c4.3-6.2,5.4-12.4,5.4-12.4s3.3,4.4,2,11.2
		c5.9-6.6,7-17.1,6.1-21.1c13.4,9.3,19.1,29.6,11.4,44.6c40.9-23.2,10.2-57.8,4.8-61.7c1.8,3.9,2.1,10.5-1.5,13.7
		c-6.1-23.1-21.2-27.9-21.2-27.9c1.8,11.9-6.5,25-14.4,34.7c-0.3-4.8-0.6-8-3.1-12.6c-0.6,8.6-7.2,15.7-9,24.4
		C55.3,83.4,59.5,92,75.6,101.1z"/>
</g>
<g>
</g>
<g>
</g>
<g>
</g>
<g>
</g>
<g>
</g>
<g>
</g>
</svg>
