<?xml version="1.0" encoding="utf-8"?>
<!-- Generator: Adobe Illustrator 19.0.0, SVG Export Plug-In . SVG Version: 6.00 Build 0)  -->
<svg version="1.1" id="Layer_1" xmlns="http://www.w3.org/2000/svg" xmlns:xlink="http://www.w3.org/1999/xlink" x="0px" y="0px"
	 viewBox="688 -180.3 512 512" style="enable-background:new 688 -180.3 512 512;" xml:space="preserve">
<style type="text/css">
	.st0{fill:#017CC2;}
	.st1{fill:#0472A3;}
	.st2{enable-background:new    ;}
	.st3{fill:#FFFFFF;}
</style>
<path class="st0" d="M1150,331.7H738c-27.5,0-50-22.5-50-50v-412c0-27.5,22.5-50,50-50h412c27.5,0,50,22.5,50,50v412
	C1200,309.2,1177.5,331.7,1150,331.7z"/>
<path class="st1" d="M1200,281.7V7l-117.5-117.5l11.5,26l15,107l-52.9,47l-43.2,8.8l-25.3,8.2l-20.9-8.2l-20.5,8.3v17.2l-19.5,70.8
	l-70,76.4l-51.9,7L776,240l91.7,91.7H1150C1177.5,331.7,1200,309.2,1200,281.7z"/>
<g id="Shape_1_1_" class="st2">
	<g id="Shape_1">
		<g>
			<circle class="st3" cx="852.3" cy="-120.3" r="22.8"/>
		</g>
	</g>
</g>
<g id="Shape_2_1_" class="st2">
	<g id="Shape_2">
		<g>
			<path class="st3" d="M1025.2-121.7C915.1-121.2,908.3,57.1,908.3,57.1l45,14.3l-0.1-5.9C967.5-101.8,1025.2-121.7,1025.2-121.7z"
				/>
		</g>
	</g>
</g>
<g id="Shape_3_1_" class="st2">
	<g id="Shape_3">
		<g>
			<path class="st3" d="M868-76.8h-22.4c-16.8,3.6-21.9,20.4-21.9,20.4l6.1,5.6c-25.5,213.3,178.4,130.5,178.4,130.5
				C796.3,84.3,868-76.8,868-76.8z"/>
		</g>
	</g>
</g>
<g id="Shape_4_1_" class="st2">
	<g id="Shape_4">
		<g>
			<path class="st3" d="M1034.1-121.5c0,0,52.2,13,56.8,63c4.6,50-12.8,96.9-78.1,136.7c0,0,93.9,2,108.7-95.4
				C1136.3-114.6,1040.8-122,1034.1-121.5z"/>
		</g>
	</g>
</g>
<g id="Shape_5_1_" class="st2">
	<g id="Shape_5">
		<g>
			<path class="st3" d="M905.5,103.8c-7.1,122.4-62,143.9-68.1,145.4c-26.5,6.6-26.5-8.2-26.5-8.2c16.6-18-3.6-30.1-3.6-30.1
				s-2.5-1.7-11.1-1.7c-5.2,0-10.4,1.7-10.4,1.7c-28.6,23.5,1.5,44.9,13.3,46.4c128.8,16.8,147.2-153.6,147.2-153.6H905.5z"/>
		</g>
	</g>
</g>
</svg>
