<?xml version="1.0" encoding="utf-8"?>
<!-- Generator: Adobe Illustrator 15.1.0, SVG Export Plug-In . SVG Version: 6.00 Build 0)  -->
<!DOCTYPE svg PUBLIC "-//W3C//DTD SVG 1.1//EN" "http://www.w3.org/Graphics/SVG/1.1/DTD/svg11.dtd">
<svg version="1.1" id="Capa_1" xmlns="http://www.w3.org/2000/svg" xmlns:xlink="http://www.w3.org/1999/xlink" x="0px" y="0px"
	 width="180px" height="180px" viewBox="129.274 129.275 180 180" enable-background="new 129.274 129.275 180 180"
	 xml:space="preserve">
<rect x="129.274" y="129.275" fill="#C0392B" width="180" height="180"/>
<g>
	<polygon fill="#E74C3C" points="236.65,186.437 230.006,224.417 246.838,241.873 267.313,241.939 286.899,213.07 274.54,185.859 	
		"/>
	<g>
		<path fill="#FFFFFF" d="M286.121,192.784c-2.972-5.182-7.002-9.286-12.092-12.31c-5.091-3.025-10.648-4.537-16.678-4.537
			c-6.028,0-11.589,1.512-16.679,4.537c-5.092,3.024-9.12,7.128-12.092,12.31c-2.971,5.184-4.456,10.843-4.456,16.98
			c0,7.371,2.111,13.999,6.338,19.887c4.226,5.886,9.684,9.961,16.375,12.222c0.779,0.148,1.355,0.044,1.729-0.309
			c0.376-0.353,0.563-0.792,0.563-1.319c0-0.089-0.007-0.881-0.021-2.379s-0.021-2.805-0.021-3.92l-0.996,0.176
			c-0.633,0.119-1.435,0.17-2.4,0.154c-0.966-0.014-1.968-0.117-3.007-0.309c-1.037-0.19-2.004-0.631-2.898-1.32
			c-0.894-0.691-1.528-1.593-1.903-2.709l-0.433-1.013c-0.288-0.674-0.743-1.426-1.362-2.246c-0.621-0.823-1.248-1.38-1.883-1.675
			l-0.303-0.22c-0.201-0.146-0.388-0.324-0.562-0.529c-0.173-0.206-0.303-0.411-0.389-0.617c-0.088-0.206-0.016-0.373,0.216-0.506
			c0.23-0.134,0.648-0.198,1.254-0.198l0.865,0.133c0.577,0.117,1.29,0.468,2.141,1.057c0.853,0.587,1.552,1.352,2.1,2.29
			c0.663,1.203,1.463,2.12,2.4,2.753c0.938,0.632,1.883,0.947,2.834,0.947c0.952,0,1.772-0.075,2.466-0.22
			c0.691-0.148,1.34-0.368,1.947-0.662c0.26-1.968,0.965-3.479,2.119-4.536c-1.645-0.176-3.121-0.441-4.434-0.794
			c-1.313-0.354-2.668-0.925-4.067-1.718c-1.399-0.792-2.561-1.778-3.482-2.952c-0.923-1.174-1.681-2.716-2.271-4.625
			c-0.592-1.909-0.886-4.11-0.886-6.607c0-3.554,1.139-6.578,3.417-9.074c-1.067-2.671-0.968-5.667,0.303-8.984
			c0.836-0.264,2.077-0.066,3.721,0.595c1.645,0.661,2.848,1.227,3.611,1.697c0.766,0.468,1.378,0.865,1.84,1.188
			c2.683-0.763,5.452-1.146,8.307-1.146c2.855,0,5.624,0.383,8.308,1.146l1.643-1.057c1.126-0.704,2.453-1.351,3.981-1.938
			c1.528-0.588,2.696-0.749,3.506-0.484c1.298,3.317,1.412,6.313,0.345,8.984c2.277,2.497,3.418,5.521,3.418,9.074
			c0,2.497-0.297,4.707-0.886,6.629c-0.592,1.924-1.355,3.464-2.293,4.626c-0.938,1.161-2.106,2.136-3.504,2.928
			c-1.399,0.792-2.757,1.364-4.068,1.718c-1.313,0.353-2.791,0.619-4.435,0.794c1.5,1.321,2.248,3.405,2.248,6.254v9.294
			c0,0.527,0.181,0.968,0.544,1.319c0.358,0.353,0.928,0.457,1.707,0.309c6.692-2.261,12.15-6.336,16.376-12.221
			c4.225-5.889,6.338-12.517,6.338-19.889C290.577,203.626,289.091,197.968,286.121,192.784z"/>
	</g>
</g>
<g>
	<polygon fill="#FFFFFF" points="159.068,185.812 152.418,224.078 169.263,241.667 189.751,241.733 209.352,212.646 
		196.985,185.229 	"/>
	<g>
		<path fill="#E74C3C" d="M208.573,192.207c-2.972-5.222-7.005-9.356-12.1-12.404c-5.095-3.048-10.656-4.571-16.69-4.571
			c-6.032,0-11.597,1.524-16.69,4.571c-5.095,3.048-9.127,7.183-12.101,12.404c-2.973,5.223-4.459,10.925-4.459,17.108
			c0,7.426,2.114,14.104,6.342,20.036c4.229,5.932,9.691,10.037,16.387,12.315c0.779,0.148,1.356,0.044,1.731-0.311
			c0.376-0.355,0.563-0.799,0.563-1.33c0-0.089-0.008-0.888-0.022-2.396c-0.015-1.51-0.022-2.826-0.022-3.95l-0.997,0.178
			c-0.635,0.119-1.436,0.17-2.402,0.154c-0.967-0.014-1.97-0.117-3.009-0.311c-1.039-0.191-2.005-0.636-2.9-1.33
			c-0.895-0.695-1.529-1.604-1.904-2.729l-0.433-1.021c-0.288-0.68-0.744-1.436-1.364-2.263c-0.621-0.83-1.248-1.391-1.883-1.688
			l-0.303-0.221c-0.202-0.148-0.389-0.327-0.562-0.533c-0.174-0.208-0.304-0.415-0.39-0.622c-0.087-0.208-0.015-0.378,0.216-0.511
			c0.231-0.134,0.649-0.199,1.256-0.199l0.866,0.133c0.577,0.119,1.291,0.473,2.143,1.064c0.852,0.593,1.552,1.362,2.1,2.309
			c0.664,1.212,1.464,2.137,2.402,2.773c0.938,0.636,1.883,0.954,2.835,0.954c0.953,0,1.775-0.075,2.468-0.221
			c0.692-0.149,1.341-0.371,1.948-0.668c0.26-1.982,0.967-3.505,2.122-4.57c-1.646-0.178-3.124-0.444-4.438-0.8
			c-1.313-0.355-2.67-0.931-4.069-1.73c-1.401-0.799-2.562-1.791-3.486-2.974c-0.923-1.183-1.681-2.737-2.272-4.659
			c-0.592-1.924-0.888-4.143-0.888-6.658c0-3.58,1.141-6.628,3.421-9.143c-1.068-2.691-0.968-5.709,0.302-9.053
			c0.837-0.266,2.079-0.066,3.724,0.6c1.645,0.665,2.85,1.236,3.614,1.709c0.766,0.473,1.38,0.872,1.842,1.198
			c2.684-0.769,5.455-1.154,8.311-1.154c2.857,0,5.629,0.386,8.314,1.154l1.645-1.065c1.125-0.71,2.454-1.361,3.982-1.952
			c1.531-0.592,2.7-0.755,3.509-0.488c1.299,3.343,1.414,6.36,0.345,9.052c2.28,2.516,3.422,5.563,3.422,9.143
			c0,2.516-0.298,4.742-0.887,6.68c-0.592,1.938-1.356,3.49-2.294,4.661c-0.939,1.169-2.108,2.151-3.508,2.95
			c-1.4,0.798-2.757,1.375-4.07,1.73c-1.314,0.355-2.793,0.624-4.438,0.8c1.501,1.332,2.25,3.432,2.25,6.302v9.363
			c0,0.532,0.18,0.976,0.542,1.331c0.36,0.354,0.93,0.459,1.709,0.31c6.697-2.277,12.159-6.383,16.388-12.313
			c4.228-5.933,6.343-12.611,6.343-20.038C213.033,203.131,211.545,197.43,208.573,192.207z"/>
	</g>
</g>
</svg>
