<?xml version="1.0" encoding="utf-8"?>
<!-- Generator: Adobe Illustrator 15.1.0, SVG Export Plug-In . SVG Version: 6.00 Build 0)  -->
<!DOCTYPE svg PUBLIC "-//W3C//DTD SVG 1.1//EN" "http://www.w3.org/Graphics/SVG/1.1/DTD/svg11.dtd">
<svg version="1.1" id="Layer_1" xmlns="http://www.w3.org/2000/svg" xmlns:xlink="http://www.w3.org/1999/xlink" x="0px" y="0px"
	 width="150px" height="150px" viewBox="437.5 587.5 150 150" enable-background="new 437.5 587.5 150 150" xml:space="preserve">
<g id="Shape_1_1_" enable-background="new    ">
	<g id="Shape_1">
		<g>
			<path fill="#393162" d="M470.977,587.5c-4.746,0-8.61,3.82-8.61,8.533c0,4.697,3.864,8.516,8.61,8.516
				c4.749,0,8.599-3.818,8.599-8.516C479.575,591.32,475.726,587.5,470.977,587.5z"/>
		</g>
	</g>
</g>
<g id="Shape_2_1_" enable-background="new    ">
	<g id="Shape_2_2_">
		<g>
			<path fill="#017CC2" d="M536.117,595.489c-41.493,0.183-44.044,66.794-44.044,66.794l16.945,5.328l-0.029-2.186
				C514.364,602.928,536.117,595.489,536.117,595.489z"/>
		</g>
	</g>
	<text transform="matrix(1 0 0 1 519.7092 707.335)" fill="#017CC2" font-family="'Verdana'" font-size="21">i</text>
	<text transform="matrix(1 0 0 1 525.4719 707.335)" fill="#393162" font-family="'Verdana'" font-size="21">Fisica</text>
	<text transform="matrix(1 0 0 1 546.5422 718.668)" fill="#017CC2" font-family="'Verdana'" font-size="15">.org</text>
</g>
<g id="Shape_3_1_" enable-background="new    ">
	<g id="Shape_3">
		<g>
			<path fill="#017CC2" d="M476.883,612.273h-8.446c-6.357,1.337-8.271,7.619-8.271,7.619l2.304,2.09
				c-9.615,79.645,67.215,48.729,67.215,48.729C449.857,672.424,476.883,612.273,476.883,612.273z"/>
		</g>
	</g>
</g>
<g id="Shape_4_1_" enable-background="new    ">
	<g id="Shape_4_2_">
		<g>
			<path fill="#393162" d="M539.489,595.592c0,0,19.668,4.863,21.393,23.531c1.742,18.671-4.801,36.208-29.4,51.064
				c0,0,35.371,0.729,40.943-35.629C577.996,598.164,541.981,595.387,539.489,595.592z"/>
		</g>
	</g>
</g>
<g id="Shape_5_1_" enable-background="new    ">
	<g id="Shape_5">
		<g>
			<path fill="#017CC2" d="M491.007,679.715c-2.685,45.734-23.351,53.723-25.646,54.307c-10.005,2.477-10.005-3.057-10.005-3.057
				c6.252-6.713-1.342-11.23-1.342-11.23s-0.952-0.65-4.175-0.65c-1.976,0-3.895,0.65-3.895,0.65
				c-10.764,8.758,0.574,16.764,4.992,17.332c48.519,6.264,55.447-57.352,55.447-57.352H491.007L491.007,679.715z"/>
		</g>
	</g>
</g>
</svg>
