<?xml version="1.0" encoding="utf-8"?>
<!-- Generator: Adobe Illustrator 15.1.0, SVG Export Plug-In . SVG Version: 6.00 Build 0)  -->
<!DOCTYPE svg PUBLIC "-//W3C//DTD SVG 1.1//EN" "http://www.w3.org/Graphics/SVG/1.1/DTD/svg11.dtd">
<svg version="1.1" xmlns="http://www.w3.org/2000/svg" xmlns:xlink="http://www.w3.org/1999/xlink" x="0px" y="0px" width="1024px"
	 height="1024px" viewBox="0 0 1024 1024" enable-background="new 0 0 1024 1024" xml:space="preserve">
<g id="Shape_1_1_" enable-background="new    ">
	<g id="Shape_1">
		<g>
			<ellipse fill-rule="evenodd" clip-rule="evenodd" fill="#393162" cx="13.302" cy="10.961" rx="1.835" ry="1.819"/>
		</g>
	</g>
</g>
<g id="Shape_2_1_" enable-background="new    ">
	<g id="Shape_2_3_">
		<g>
			<path fill-rule="evenodd" clip-rule="evenodd" fill="#017CC2" d="M27.201,10.846c-8.854,0.041-9.398,14.25-9.398,14.25
				l3.616,1.138l-0.007-0.467C22.559,12.435,27.201,10.846,27.201,10.846z"/>
		</g>
	</g>
</g>
<g id="Shape_3_1_" enable-background="new    ">
	<g id="Shape_3">
		<g>
			<path fill-rule="evenodd" clip-rule="evenodd" fill="#017CC2" d="M14.563,14.426h-1.804c-1.354,0.285-1.764,1.625-1.764,1.625
				l0.492,0.447c-2.05,16.99,14.34,10.395,14.34,10.395C8.797,27.259,14.563,14.426,14.563,14.426z"/>
		</g>
	</g>
</g>
<g id="Shape_4_1_" enable-background="new    ">
	<g id="Shape_4_3_">
		<g>
			<path fill-rule="evenodd" clip-rule="evenodd" fill="#393162" d="M27.918,10.867c0,0,4.196,1.04,4.565,5.022
				c0.369,3.983-1.025,7.723-6.274,10.893c0,0,7.546,0.156,8.734-7.601C36.132,11.418,28.451,10.826,27.918,10.867z"/>
		</g>
	</g>
</g>
<g id="Shape_5_1_" enable-background="new    ">
	<g id="Shape_5">
		<g>
			<path fill-rule="evenodd" clip-rule="evenodd" fill="#017CC2" d="M17.577,28.814c-0.574,9.755-4.982,11.462-5.474,11.584
				c-2.132,0.528-2.132-0.65-2.132-0.65c1.333-1.433-0.287-2.398-0.287-2.398s-0.203-0.136-0.889-0.136
				c-0.421,0-0.833,0.136-0.833,0.136c-2.296,1.87,0.123,3.577,1.066,3.699c10.351,1.338,11.831-12.235,11.831-12.235H17.577z"/>
		</g>
	</g>
</g>
</svg>
