<?xml version="1.0" encoding="utf-8"?>
<!-- Generator: Adobe Illustrator 15.1.0, SVG Export Plug-In . SVG Version: 6.00 Build 0)  -->
<!DOCTYPE svg PUBLIC "-//W3C//DTD SVG 1.1//EN" "http://www.w3.org/Graphics/SVG/1.1/DTD/svg11.dtd">
<svg version="1.1" xmlns="http://www.w3.org/2000/svg" xmlns:xlink="http://www.w3.org/1999/xlink" x="0px" y="0px" width="1024px"
	 height="1024px" viewBox="0 0 1024 1024" enable-background="new 0 0 1024 1024" xml:space="preserve">
<g id="Shape_1_1_" enable-background="new    ">
	<g id="Shape_1">
		<g>
			<circle fill-rule="evenodd" clip-rule="evenodd" fill="#393162" cx="300.25" cy="159.75" r="44.75"/>
		</g>
	</g>
</g>
<g id="Shape_2_1_" enable-background="new    ">
	<g id="Shape_2">
		<g>
			<path fill-rule="evenodd" clip-rule="evenodd" fill="#017CC2" d="M639.188,156.924C423.29,157.924,410,507.5,410,507.5l88.167,28
				L498,524C526,196,639.188,156.924,639.188,156.924z"/>
		</g>
	</g>
</g>
<g id="Shape_3_1_" enable-background="new    ">
	<g id="Shape_3">
		<g>
			<path fill-rule="evenodd" clip-rule="evenodd" fill="#017CC2" d="M331,245h-44c-33,7-43,40-43,40l12,11
				c-50,418,349.704,255.73,349.704,255.73C190.407,560.727,331,245,331,245z"/>
		</g>
	</g>
</g>
<g id="Shape_4_1_" enable-background="new    ">
	<g id="Shape_4">
		<g>
			<path fill-rule="evenodd" clip-rule="evenodd" fill="#393162" d="M656.68,157.423C656.68,157.423,759,183,768,281
				s-25,190-153,268c0,0,184.025,3.831,213-187C857,171,669.68,156.423,656.68,157.423z"/>
		</g>
	</g>
</g>
<g id="Shape_5_1_" enable-background="new    ">
	<g id="Shape_5">
		<g>
			<path fill-rule="evenodd" clip-rule="evenodd" fill="#017CC2" d="M404.5,599C390.5,839,283,881,271,884c-52,13-52-16-52-16
				c32.5-35.25-7-59-7-59s-4.949-3.333-21.667-3.333C180.061,805.667,170,809,170,809c-56,46,3,88,26,91
				c252.42,32.925,288.5-301,288.5-301H404.5z"/>
		</g>
	</g>
</g>
</svg>
