<?xml version="1.0" encoding="utf-8"?>
<!-- Generator: Adobe Illustrator 19.0.0, SVG Export Plug-In . SVG Version: 6.00 Build 0)  -->
<svg version="1.1" id="Layer_1" xmlns="http://www.w3.org/2000/svg" xmlns:xlink="http://www.w3.org/1999/xlink" x="0px" y="0px"
	 viewBox="432 -432 1024 1024" style="enable-background:new 432 -432 1024 1024;" xml:space="preserve">
<style type="text/css">
	.st0{fill:#017CC2;}
	.st1{fill:#0273A5;}
	.st2{enable-background:new    ;}
	.st3{fill:#FFFFFF;}
</style>
<path class="st0" d="M804.9,258l51.9-7l70-76.4l19.5-70.8V86.6l20.5-8.3l20.9,8.2l25.3-8.2l43.2-8.8l52.9-47l-15-107l-11.5-26
	L1200,7v-137.3c0-27.5-22.5-50-50-50H738c-27.5,0-50,22.5-50,50v412c0,27.5,22.5,50,50,50h129.7L776,240L804.9,258z"/>
<path class="st1" d="M1200,281.7V7l-117.5-117.5l11.5,26l15,107l-52.9,47l-43.2,8.8l-25.3,8.2l-20.9-8.2l-20.5,8.3v17.2l-19.5,70.8
	l-70,76.4l-51.9,7L776,240l91.7,91.7H1150C1177.5,331.7,1200,309.2,1200,281.7z"/>
<g id="Shape_1_1_" class="st2">
	<g id="Shape_1">
		<g>
			<circle class="st3" cx="852.3" cy="-120.3" r="22.8"/>
		</g>
	</g>
</g>
<g id="Shape_2_1_" class="st2">
	<g id="Shape_2">
		<g>
			<path class="st3" d="M953.2,65.5c14.3-167.3,72-187.3,72-187.3C915.1-121.2,908.3,57.1,908.3,57.1l45,14.3L953.2,65.5z"/>
		</g>
	</g>
</g>
<g id="Shape_3_1_" class="st2">
	<g id="Shape_3">
		<g>
			<path class="st3" d="M966.8,78.3l20.9,8.2c0,0,0,0,0,0l18.3-5.9c1.5-0.5,2.3-0.9,2.3-0.9C796.3,84.3,868-76.8,868-76.8h-22.4
				c-16.8,3.6-21.9,20.4-21.9,20.4l6.1,5.6C813.7,83.5,888.6,100.4,946.3,94.5v-7.9L966.8,78.3z"/>
			<path class="st3" d="M1005.9,80.6l-18.3,5.9C996.2,84,1002.7,81.7,1005.9,80.6z"/>
			<path class="st3" d="M966.8,78.3l-20.5,8.3v7.9c15.8-1.6,30.3-5,41.3-8L966.8,78.3z"/>
		</g>
	</g>
</g>
<g id="Shape_4_1_" class="st2">
	<g id="Shape_4">
		<g>
			<path class="st3" d="M1088.9-104.1l21.9,21.9C1104.8-91.5,1097.1-98.6,1088.9-104.1z"/>
			<path class="st3" d="M1056.1,69.5l52.9-46.9c0,0,0,0,0,0l-15-107l-10-22.7c-22.4-12.9-46.6-14.6-49.8-14.3c0,0,52.2,13,56.8,63
				c4.6,50-12.8,96.9-78.1,136.7L1056.1,69.5C1056.1,69.5,1056.1,69.5,1056.1,69.5z"/>
			<path class="st3" d="M1109,22.5c5.7-10.9,10.2-24,12.5-39.6c4.4-28.9-0.9-49.9-10.8-65.1l-21.9-21.9c-1.6-1.1-3.3-2.1-4.9-3.1
				l10,22.7L1109,22.5z"/>
			<path class="st3" d="M1109,22.6l-52.9,46.9C1074.9,62,1095.6,48.2,1109,22.6z"/>
			<path class="st3" d="M1056.1,69.5l-43.2,8.8C1012.9,78.3,1033,78.7,1056.1,69.5z"/>
		</g>
	</g>
</g>
<g id="Shape_5_1_" class="st2">
	<g id="Shape_5">
		<g>
			<path class="st3" d="M789.9,253.9L776,240C779,246,784.5,250.8,789.9,253.9z"/>
			<path class="st3" d="M804.9,258l51.9-7c0,0,0,0,0,0l70-76.4l19.5-70.8h-40.8c-7.1,122.4-62,143.9-68.1,145.4
				c-26.5,6.6-26.5-8.2-26.5-8.2c16.6-18-3.6-30.1-3.6-30.1s-2.5-1.7-11.1-1.7c-5.2,0-10.4,1.7-10.4,1.7
				c-13,10.7-13.8,20.9-9.8,29.1L804.9,258C804.9,258,804.9,258,804.9,258z"/>
			<path class="st3" d="M856.8,251c76.9-31,89.5-147.2,89.5-147.2l-19.5,70.8L856.8,251z"/>
			<path class="st3" d="M856.8,251l-51.9,7C824.8,259.8,842,257,856.8,251z"/>
			<path class="st3" d="M804.9,258L776,240l0,0l13.9,13.9c3.4,1.9,6.7,3.2,9.2,3.5C801.1,257.6,803,257.8,804.9,258z"/>
		</g>
	</g>
</g>
</svg>
