<?xml version="1.0" encoding="utf-8"?>
<!-- Generator: Adobe Illustrator 15.1.0, SVG Export Plug-In . SVG Version: 6.00 Build 0)  -->
<!DOCTYPE svg PUBLIC "-//W3C//DTD SVG 1.1//EN" "http://www.w3.org/Graphics/SVG/1.1/DTD/svg11.dtd">
<svg version="1.1" id="Layer_1" xmlns="http://www.w3.org/2000/svg" xmlns:xlink="http://www.w3.org/1999/xlink" x="0px" y="0px"
	 width="50px" height="50px" viewBox="487 487 50 50" enable-background="new 487 487 50 50" xml:space="preserve">
<g id="Shape_1_1_" enable-background="new    ">
	<g id="Shape_1">
		<g>
			<circle fill="#393162" cx="500.397" cy="490.533" r="2.753"/>
		</g>
	</g>
</g>
<g id="Shape_2_1_" enable-background="new    ">
	<g id="Shape_2">
		<g>
			<path fill="#017CC2" d="M521.254,490.36c-13.285,0.061-14.103,21.571-14.103,21.571l5.425,1.722l-0.011-0.709
				C514.289,492.763,521.254,490.36,521.254,490.36z"/>
		</g>
	</g>
</g>
<g id="Shape_3_1_" enable-background="new    ">
	<g id="Shape_3">
		<g>
			<path fill="#017CC2" d="M502.29,495.779h-2.708c-2.03,0.431-2.646,2.461-2.646,2.461l0.738,0.677
				c-3.077,25.721,21.516,15.734,21.516,15.734C493.639,515.203,502.29,495.779,502.29,495.779z"/>
		</g>
	</g>
</g>
<g id="Shape_4_1_" enable-background="new    ">
	<g id="Shape_4">
		<g>
			<path fill="#393162" d="M522.328,490.39c0,0,6.297,1.574,6.85,7.604c0.555,6.03-1.537,11.691-9.414,16.491
				c0,0,11.324,0.234,13.107-11.507C534.656,491.225,523.129,490.328,522.328,490.39z"/>
		</g>
	</g>
</g>
<g id="Shape_5_1_" enable-background="new    ">
	<g id="Shape_5">
		<g>
			<path fill="#017CC2" d="M506.812,517.559c-0.861,14.768-7.476,17.354-8.214,17.537c-3.2,0.801-3.2-0.984-3.2-0.984
				c2-2.17-0.431-3.631-0.431-3.631s-0.305-0.203-1.333-0.203c-0.632,0-1.251,0.203-1.251,0.203c-3.445,2.832,0.185,5.416,1.6,5.6
				c15.531,2.027,17.752-18.521,17.752-18.521H506.812z"/>
		</g>
	</g>
</g>
</svg>
