<?xml version="1.0" encoding="utf-8"?>
<!-- Generator: Adobe Illustrator 19.0.0, SVG Export Plug-In . SVG Version: 6.00 Build 0)  -->
<svg version="1.1" id="Layer_1" xmlns="http://www.w3.org/2000/svg" xmlns:xlink="http://www.w3.org/1999/xlink" x="0px" y="0px"
	 viewBox="-260 -100 512 512" style="enable-background:new -260 -100 512 512;" xml:space="preserve">
<style type="text/css">
	.st0{fill:#46AEE8;}
	.st1{fill:#248DB2;}
	.st2{enable-background:new    ;}
	.st3{fill:#393162;}
	.st4{fill:#017CC2;}
	.st5{font-family:'Verdana';}
	.st6{font-size:66.7156px;}
	.st7{font-size:47.654px;}
</style>
<path class="st0" d="M202,412h-412c-27.5,0-50-22.5-50-50V-50c0-27.5,22.5-50,50-50h412c27.5,0,50,22.5,50,50v412
	C252,389.5,229.5,412,202,412z"/>
<path class="st1" d="M252,362V68.2L139.8-44l13.6,30.7L171,112.9L64.3,180.4l-5.7,1.7l-30.8,6.3L4.8,184l-20.2,4.8v20L-44,292.3
	l-82.6,90.1l-61.2,8.3l-34-21.2l42.6,42.6H202C229.5,412,252,389.5,252,362z"/>
<g id="Shape_1_1_" class="st2">
	<g id="Shape_1">
		<g>
			<path class="st3" d="M-127.9-82.3c-15.1,0-27.4,12.1-27.4,27.1c0,14.9,12.3,27.1,27.4,27.1c15.1,0,27.3-12.1,27.3-27.1
				C-100.6-70.1-112.8-82.3-127.9-82.3z"/>
		</g>
	</g>
</g>
<g id="Shape_2_1_" class="st2">
	<g id="Shape_2_2_">
		<g>
			<path class="st4" d="M79-56.9C-52.8-56.3-60.9,155.3-60.9,155.3l53.8,16.9l-0.1-6.9C9.9-33.3,79-56.9,79-56.9z"/>
		</g>
	</g>
	<text transform="matrix(1 0 0 1 26.9078 298.438)" class="st4 st5 st6">i</text>
	<text transform="matrix(1 0 0 1 45.2154 298.438)" class="st3 st5 st6">Fisica</text>
	<text transform="matrix(1 0 0 1 112.1568 334.4409)" class="st4 st5 st7">.org</text>
</g>
<g id="Shape_3_1_" class="st2">
	<g id="Shape_3">
		<g>
			<path class="st4" d="M-109.1-3.6H-136c-20.2,4.2-26.3,24.2-26.3,24.2l7.3,6.6c-30.5,253,213.5,154.8,213.5,154.8
				C-195,187.5-109.1-3.6-109.1-3.6z"/>
		</g>
	</g>
</g>
<g id="Shape_4_1_" class="st2">
	<g id="Shape_4_2_">
		<g>
			<path class="st3" d="M89.7-56.6c0,0,62.5,15.4,68,74.8c5.5,59.3-15.3,115-93.4,162.2c0,0,112.4,2.3,130.1-113.2
				C212.1-48.4,97.7-57.2,89.7-56.6z"/>
		</g>
	</g>
</g>
<g id="Shape_5_1_" class="st2">
	<g id="Shape_5">
		<g>
			<path class="st4" d="M-64.3,210.7c-8.5,145.3-74.2,170.7-81.5,172.5c-31.8,7.9-31.8-9.7-31.8-9.7c19.9-21.3-4.3-35.7-4.3-35.7
				s-3-2.1-13.3-2.1c-6.3,0-12.4,2.1-12.4,2.1c-34.2,27.8,1.8,53.3,15.9,55.1C-37.4,412.8-15.4,210.7-15.4,210.7H-64.3L-64.3,210.7z
				"/>
		</g>
	</g>
</g>
</svg>
