<?xml version="1.0" encoding="utf-8"?>
<!-- Generator: Adobe Illustrator 15.1.0, SVG Export Plug-In . SVG Version: 6.00 Build 0)  -->
<!DOCTYPE svg PUBLIC "-//W3C//DTD SVG 1.1//EN" "http://www.w3.org/Graphics/SVG/1.1/DTD/svg11.dtd">
<svg version="1.1" id="Layer_1" xmlns="http://www.w3.org/2000/svg" xmlns:xlink="http://www.w3.org/1999/xlink" x="0px" y="0px"
	 width="450px" height="30px" viewBox="0 0 450 30" enable-background="new 0 0 450 30" xml:space="preserve">
<rect fill="#FFFFFF" width="450" height="10.5"/>
<rect y="10.5" fill="#F7CA18" width="450" height="19.5"/>
<rect x="27.56" y="0.5" width="6" height="20"/>
<rect x="51.95" y="0.5" width="6" height="20"/>
<rect x="76.34" y="0.5" width="6" height="20"/>
<rect x="100.731" y="0.5" width="6" height="20"/>
<rect x="125.121" y="0.5" width="6" height="20"/>
<rect x="149.511" y="0.5" width="6" height="20"/>
<rect x="173.901" y="0.5" width="6" height="20"/>
<rect x="198.292" y="0.5" width="6" height="20"/>
<rect x="222.682" y="0.5" width="6" height="20"/>
<rect x="247.072" y="0.5" width="6" height="20"/>
<rect x="271.463" y="0.5" width="6" height="20"/>
<rect x="294.512" y="0.5" width="6" height="20"/>
<rect x="318.902" y="0.5" width="6" height="20"/>
<rect x="343.293" y="0.5" width="6" height="20"/>
<rect x="367.682" y="0.5" width="6" height="20"/>
<rect x="392.072" y="0.5" width="6" height="20"/>
<rect x="416.463" y="0.5" width="6" height="20"/>
</svg>
