<?xml version="1.0" encoding="utf-8"?>
<!-- Generator: Adobe Illustrator 19.0.0, SVG Export Plug-In . SVG Version: 6.00 Build 0)  -->
<svg version="1.1" id="Layer_1" xmlns="http://www.w3.org/2000/svg" xmlns:xlink="http://www.w3.org/1999/xlink" x="0px" y="0px"
	 viewBox="176 -176 512 512" style="enable-background:new 176 -176 512 512;" xml:space="preserve">
<style type="text/css">
	.st0{fill:#017CC2;}
	.st1{fill:#0472A3;}
	.st2{enable-background:new    ;}
	.st3{fill:#FFFFFF;}
	.st4{font-family:'Verdana';}
	.st5{font-size:56.9067px;}
	.st6{font-size:45.5254px;}
</style>
<path class="st0" d="M638,336H226c-27.5,0-50-22.5-50-50v-412c0-27.5,22.5-50,50-50h412c27.5,0,50,22.5,50,50v412
	C688,313.5,665.5,336,638,336z"/>
<path class="st1" d="M688,286V11.3L570.5-106.2l11.5,26l15,107l-52.9,47l-43.2,8.8l-25.3,8.2l-20.9-8.2l-20.5,8.3v17.2l-19.5,70.8
	l-70,76.4l-51.9,7l-28.8-18l91.7,91.7H638C665.5,336,688,313.5,688,286z"/>
<g id="Shape_1_1_" class="st2">
	<g id="Shape_1">
		<g>
			<circle class="st3" cx="340.3" cy="-116" r="22.8"/>
		</g>
	</g>
</g>
<g id="Shape_2_1_" class="st2">
	<g id="Shape_2">
		<g>
			<path class="st3" d="M513.2-117.4C403.1-116.9,396.3,61.4,396.3,61.4l45,14.3l-0.1-5.9C455.5-97.5,513.2-117.4,513.2-117.4z"/>
		</g>
	</g>
</g>
<g id="Shape_3_1_" class="st2">
	<g id="Shape_3">
		<g>
			<path class="st3" d="M356-72.5h-22.4c-16.8,3.6-21.9,20.4-21.9,20.4l6.1,5.6C292.3,166.8,496.2,84,496.2,84
				C284.3,88.6,356-72.5,356-72.5z"/>
		</g>
	</g>
</g>
<g id="Shape_4_1_" class="st2">
	<g id="Shape_4">
		<g>
			<path class="st3" d="M522.1-117.2c0,0,52.2,13,56.8,63s-12.8,96.9-78.1,136.7c0,0,93.9,2,108.7-95.4
				C624.3-110.3,528.8-117.7,522.1-117.2z"/>
		</g>
	</g>
</g>
<g id="Shape_5_1_" class="st2">
	<g id="Shape_5">
		<g>
			<path class="st3" d="M393.5,108.1c-7.1,122.4-62,143.9-68.1,145.4c-26.5,6.6-26.5-8.2-26.5-8.2c16.6-18-3.6-30.1-3.6-30.1
				s-2.5-1.7-11.1-1.7c-5.2,0-10.4,1.7-10.4,1.7c-28.6,23.5,1.5,44.9,13.3,46.4C415.9,278.4,434.3,108,434.3,108L393.5,108.1
				L393.5,108.1z"/>
		</g>
	</g>
</g>
<text transform="matrix(1 0 0 1 454.75 164.9638)"><tspan x="0" y="0" class="st3 st4 st5">iFisica</tspan><tspan x="0" y="42.1" class="st3 st4 st5">    </tspan><tspan x="80" y="42.1" class="st3 st4 st6">.org</tspan></text>
</svg>
